<svg width="22" height="21" viewBox="0 0 22 21" fill="none" xmlns="http://www.w3.org/2000/svg">
<path d="M10.5948 0.222889C10.7415 -0.0744096 11.1655 -0.0744102 11.3122 0.222888L14.3871 6.45341C14.4454 6.57147 14.558 6.6533 14.6883 6.67223L21.5641 7.67134C21.8922 7.71902 22.0232 8.12221 21.7858 8.35362L16.8104 13.2034C16.7161 13.2953 16.6731 13.4277 16.6954 13.5575L17.8699 20.4055C17.9259 20.7322 17.583 20.9814 17.2895 20.8271L11.1396 17.594C11.0231 17.5327 10.8839 17.5327 10.7674 17.594L4.61746 20.8271C4.32401 20.9814 3.98103 20.7322 4.03708 20.4055L5.2116 13.5575C5.23386 13.4277 5.19084 13.2953 5.09656 13.2034L0.121194 8.35362C-0.116213 8.12221 0.0147904 7.71902 0.342879 7.67134L7.21867 6.67223C7.34896 6.6533 7.46158 6.57147 7.51985 6.45341L10.5948 0.222889Z" fill="#F4A641"/>
</svg>
